{"title":"The.Messenger.2009.DVDRiP.XViD.AC3.Optional.NORDIC.Zen_Bud","uid":5839548,"size":1487083747,"categoryP":"video","categoryS":"movies","magnet":"?xt=urn:btih:1432c8620a70f3ba749bf59d2fe7e4bb5b19c59d&amp;dn=The.Messenger.2009.DVDRiP.XViD.AC3.Optional.NORDIC.Zen_Bud&amp;tr=udp%3A%2F%2Ftracker.openbittorrent.com%3A80&amp;tr=udp%3A%2F%2Fopen.demonii.com%3A1337&amp;tr=udp%3A%2F%2Ftracker.coppersurfer.tk%3A6969&amp;tr=udp%3A%2F%2Fexodus.desync.com%3A6969","seeders":0,"leechers":1,"uploader":"Zen_Bud","files":-1,"time":1284883683,"description":"\nComplete name                    : The.Messenger.2009.avi\nFormat                           : AVI\nFile size                        : 1.37 GiB\nDuration                         : 1h 48mn\nOverall bit rate                 : 1 815 Kbps\n\nVideo\n\nFormat                           : MPEG-4 Visual\nCodec ID/Hint                    : XviD\nDuration                         : 1h 48mn\nBit rate                         : 1 356 Kbps\nWidth                            : 720 pixels\nHeight                           : 436 pixels\nDisplay aspect ratio             : 2.35:1\nStream size                      : 1.02 GiB (75%)\nWriting library                  : XviD 1.1.2 (UTC 2006-11-01)\n\nAudio\n\nFormat                           : AC-3\nDuration                         : 1h 48mn\nBit rate                         : 448 Kbps\nChannel(s)                       : 6 channels\nChannel positions                : Front: L C R, Side: L R, LFE\nSampling rate                    : 48.0 KHz\nBit depth                        : 16 bits\nStream size                      : 346 MiB (25%)\n\n\nText #1\nLanguage                         : Danish\n\nText #2\nLanguage                         : Swedish\n\nText #3\nLanguage                         : Norwegian\n\nText #4\nLanguage                         : Finnish","torrent":{"xt":"urn:btih:1432c8620a70f3ba749bf59d2fe7e4bb5b19c59d","amp;dn":"The.Messenger.2009.DVDRiP.XViD.AC3.Optional.NORDIC.Zen_Bud","amp;tr":["udp%3A%2F%2Ftracker.openbittorrent.com%3A80","udp%3A%2F%2Fopen.demonii.com%3A1337","udp%3A%2F%2Ftracker.coppersurfer.tk%3A6969","udp%3A%2F%2Fexodus.desync.com%3A6969"],"infoHash":"1432c8620a70f3ba749bf59d2fe7e4bb5b19c59d","infoHashBuffer":{"type":"Buffer","data":[20,50,200,98,10,112,243,186,116,155,245,157,47,231,228,187,91,25,197,157]},"announce":[],"urlList":[]}}